<mxfile host="app.diagrams.net" modified="2021-07-27T23:31:06.312Z" agent="5.0 (Macintosh; Intel Mac OS X 10_14_6) AppleWebKit/605.1.15 (KHTML, like Gecko) Version/14.1.2 Safari/605.1.15" etag="Zis27yY_tbFX7cjeUK8C" version="14.9.2" type="github">
  <diagram id="8tKgnH9lBfZu4XHTRGK2" name="Page-1">
    <mxGraphModel dx="830" dy="614" grid="1" gridSize="10" guides="1" tooltips="1" connect="1" arrows="1" fold="1" page="1" pageScale="1" pageWidth="827" pageHeight="1169" math="0" shadow="0">
      <root>
        <mxCell id="0" />
        <mxCell id="1" parent="0" />
        <mxCell id="zmHhYREq74rtPyTGBy1n-12" style="edgeStyle=orthogonalEdgeStyle;rounded=0;orthogonalLoop=1;jettySize=auto;html=1;entryX=1;entryY=0.5;entryDx=0;entryDy=0;" edge="1" parent="1" source="zmHhYREq74rtPyTGBy1n-1" target="zmHhYREq74rtPyTGBy1n-2">
          <mxGeometry relative="1" as="geometry">
            <Array as="points">
              <mxPoint x="430" y="330" />
            </Array>
          </mxGeometry>
        </mxCell>
        <mxCell id="zmHhYREq74rtPyTGBy1n-13" style="edgeStyle=orthogonalEdgeStyle;rounded=0;orthogonalLoop=1;jettySize=auto;html=1;entryX=0;entryY=0.5;entryDx=0;entryDy=0;" edge="1" parent="1" source="zmHhYREq74rtPyTGBy1n-1" target="zmHhYREq74rtPyTGBy1n-3">
          <mxGeometry relative="1" as="geometry">
            <Array as="points">
              <mxPoint x="430" y="330" />
            </Array>
          </mxGeometry>
        </mxCell>
        <mxCell id="zmHhYREq74rtPyTGBy1n-1" value="Application Layer" style="rounded=1;whiteSpace=wrap;html=1;" vertex="1" parent="1">
          <mxGeometry x="360" y="200" width="120" height="60" as="geometry" />
        </mxCell>
        <mxCell id="zmHhYREq74rtPyTGBy1n-11" value="" style="edgeStyle=orthogonalEdgeStyle;rounded=0;orthogonalLoop=1;jettySize=auto;html=1;" edge="1" parent="1" source="zmHhYREq74rtPyTGBy1n-2" target="zmHhYREq74rtPyTGBy1n-10">
          <mxGeometry relative="1" as="geometry" />
        </mxCell>
        <mxCell id="zmHhYREq74rtPyTGBy1n-2" value="infrastructure Layer" style="rounded=1;whiteSpace=wrap;html=1;" vertex="1" parent="1">
          <mxGeometry x="290" y="300" width="120" height="60" as="geometry" />
        </mxCell>
        <mxCell id="zmHhYREq74rtPyTGBy1n-3" value="Domain Layer" style="rounded=1;whiteSpace=wrap;html=1;" vertex="1" parent="1">
          <mxGeometry x="450" y="300" width="120" height="60" as="geometry" />
        </mxCell>
        <mxCell id="zmHhYREq74rtPyTGBy1n-9" style="edgeStyle=orthogonalEdgeStyle;rounded=0;orthogonalLoop=1;jettySize=auto;html=1;entryX=1;entryY=0.5;entryDx=0;entryDy=0;" edge="1" parent="1" source="zmHhYREq74rtPyTGBy1n-5" target="zmHhYREq74rtPyTGBy1n-1">
          <mxGeometry relative="1" as="geometry" />
        </mxCell>
        <mxCell id="zmHhYREq74rtPyTGBy1n-14" style="edgeStyle=orthogonalEdgeStyle;rounded=0;orthogonalLoop=1;jettySize=auto;html=1;" edge="1" parent="1" source="zmHhYREq74rtPyTGBy1n-5" target="zmHhYREq74rtPyTGBy1n-3">
          <mxGeometry relative="1" as="geometry" />
        </mxCell>
        <mxCell id="zmHhYREq74rtPyTGBy1n-5" value="Tests Layer" style="rounded=1;whiteSpace=wrap;html=1;" vertex="1" parent="1">
          <mxGeometry x="450" y="120" width="120" height="60" as="geometry" />
        </mxCell>
        <mxCell id="zmHhYREq74rtPyTGBy1n-8" style="edgeStyle=orthogonalEdgeStyle;rounded=0;orthogonalLoop=1;jettySize=auto;html=1;entryX=0;entryY=0.5;entryDx=0;entryDy=0;" edge="1" parent="1" source="zmHhYREq74rtPyTGBy1n-7" target="zmHhYREq74rtPyTGBy1n-1">
          <mxGeometry relative="1" as="geometry" />
        </mxCell>
        <mxCell id="zmHhYREq74rtPyTGBy1n-7" value="Host Layer&lt;br&gt;(WebApi" style="rounded=1;whiteSpace=wrap;html=1;" vertex="1" parent="1">
          <mxGeometry x="270" y="120" width="120" height="60" as="geometry" />
        </mxCell>
        <mxCell id="zmHhYREq74rtPyTGBy1n-10" value="DB" style="shape=cylinder3;whiteSpace=wrap;html=1;boundedLbl=1;backgroundOutline=1;size=15;" vertex="1" parent="1">
          <mxGeometry x="320" y="410" width="60" height="80" as="geometry" />
        </mxCell>
      </root>
    </mxGraphModel>
  </diagram>
</mxfile>
